<?xml version="1.0" encoding="utf-8"?>
<!-- Generator: Adobe Illustrator 19.0.0, SVG Export Plug-In . SVG Version: 6.00 Build 0)  -->
<svg version="1.1" id="Layer_2_1_" xmlns="http://www.w3.org/2000/svg" xmlns:xlink="http://www.w3.org/1999/xlink" x="0px" y="0px"
	 viewBox="0 0 283.5 283.5" style="enable-background:new 0 0 283.5 283.5;" xml:space="preserve">
<style type="text/css">
	.st0{fill:#cccccc;}
</style>
<g id="Layer_5">
	<path id="XMLID_194_" class="st0" d="M238.7,222.9l-81.2-81.2l81.2-81.2c4.3-4.3,4.3-11.3,0-15.7s-11.3-4.3-15.7,0L141.8,126
		L60.5,44.8c-4.3-4.3-11.3-4.3-15.7,0c-4.3,4.3-4.3,11.3,0,15.7l81.2,81.2l-81.2,81.2c-4.3,4.3-4.3,11.3,0,15.7
		c4.3,4.3,11.3,4.3,15.7,0l81.2-81.2l81.2,81.2c4.3,4.3,11.3,4.3,15.7,0C243,234.3,243,227.3,238.7,222.9z"/>
</g>
</svg>
