<svg width="64" height="32" viewBox="0 0 64 32" fill="none" xmlns="http://www.w3.org/2000/svg">
<path d="M23.4476 0.735632H23.235V0.14179H22.9647V0H23.9473L24.0941 0.435054L24.2413 0H24.4706V0.735632H24.3286V0.14179H24.3251L24.1359 0.735632H24.0519L23.8631 0.14179H23.8599V0.735632H23.7176V0.14179H23.4476V0.735632Z" fill="#FF661F"/>
<path d="M25.5306 0H28.2166C28.2288 0 28.2378 0.011595 28.2347 0.0231899L26.7495 5.79707C26.5687 6.49847 25.9364 6.98851 25.2131 6.98851H23.7176L25.5125 0.0138326C25.5147 0.00549235 25.5223 0 25.5306 0Z" fill="#FF661F"/>
<path d="M24.6561 7.35633C23.5844 7.35814 22.9631 8.11871 22.9647 9.02149C22.9663 9.95296 23.5899 10.6685 24.6614 10.6667C25.7331 10.6648 26.3544 9.94731 26.3529 9.01604C26.3511 8.11305 25.7273 7.35451 24.6561 7.35633Z" fill="#FF661F"/>
<path d="M61.3647 11.0345H64V0H61.3647V11.0345Z" fill="#FF661F"/>
<path d="M42.2312 2.50982C42.369 2.64466 42.5288 2.75008 42.711 2.8271C42.8931 2.90433 43.0875 2.94253 43.2941 2.94253C43.5005 2.94253 43.6952 2.90433 43.8772 2.8271C44.0595 2.75008 44.2193 2.64466 44.3571 2.50982C44.4949 2.37519 44.6032 2.21906 44.6818 2.041C44.7607 1.86316 44.8 1.67321 44.8 1.47116C44.8 1.26952 44.7607 1.07937 44.6818 0.901524C44.6032 0.723682 44.4949 0.567549 44.3571 0.432915C44.2193 0.298073 44.0595 0.192453 43.8772 0.11543C43.6952 0.0386159 43.5005 0 43.2941 0C43.0875 0 42.8931 0.0386159 42.711 0.11543C42.5288 0.192453 42.369 0.298073 42.2312 0.432915C42.0931 0.567549 41.985 0.723682 41.9062 0.901524C41.8271 1.07937 41.7882 1.26952 41.7882 1.47116C41.7882 1.67321 41.8271 1.86316 41.9062 2.041C41.985 2.21906 42.0931 2.37519 42.2312 2.50982Z" fill="#FF661F"/>
<path d="M39.0865 12.2029C38.9485 12.0682 38.7885 11.9626 38.6067 11.8853C38.4242 11.8085 38.23 11.7701 38.0234 11.7701C37.8168 11.7701 37.6222 11.8085 37.4404 11.8853C37.2579 11.9626 37.0981 12.0682 36.9605 12.2029C36.8223 12.3377 36.7142 12.4938 36.6358 12.6715C36.5567 12.8498 36.5176 13.0395 36.5176 13.2416C36.5176 13.4432 36.5567 13.6334 36.6358 13.8111C36.7142 13.9893 36.8223 14.1455 36.9605 14.2799C37.0981 14.4148 37.2579 14.5206 37.4404 14.5974C37.6222 14.6744 37.8168 14.7126 38.0234 14.7126C38.23 14.7126 38.4242 14.6744 38.6067 14.5974C38.7885 14.5206 38.9485 14.4148 39.0865 14.2799C39.2243 14.1455 39.3322 13.9893 39.4113 13.8111C39.4899 13.6334 39.5294 13.4432 39.5294 13.2416C39.5294 13.0395 39.4899 12.8498 39.4113 12.6715C39.3322 12.4938 39.2243 12.3377 39.0865 12.2029Z" fill="#FF661F"/>
<path d="M35.3216 12.2029C35.1836 12.0682 35.0238 11.9626 34.8418 11.8853C34.6595 11.8085 34.4653 11.7701 34.2585 11.7701C34.0521 11.7701 33.8573 11.8085 33.6757 11.8853C33.4932 11.9626 33.3334 12.0682 33.1958 12.2029C33.0576 12.3377 32.9493 12.4938 32.8709 12.6715C32.7918 12.8498 32.7529 13.0395 32.7529 13.2416C32.7529 13.4432 32.7918 13.6334 32.8709 13.8111C32.9493 13.9893 33.0576 14.1455 33.1958 14.2799C33.3334 14.4148 33.4932 14.5206 33.6757 14.5974C33.8573 14.6744 34.0521 14.7126 34.2585 14.7126C34.4653 14.7126 34.6595 14.6744 34.8418 14.5974C35.0238 14.5206 35.1836 14.4148 35.3216 14.2799C35.4594 14.1455 35.5675 13.9893 35.6463 13.8111C35.725 13.6334 35.7647 13.4432 35.7647 13.2416C35.7647 13.0395 35.725 12.8498 35.6463 12.6715C35.5675 12.4938 35.4594 12.3377 35.3216 12.2029Z" fill="#FF661F"/>
<path d="M31.5569 12.2029C31.4191 12.0682 31.2591 11.9626 31.0773 11.8853C30.895 11.8085 30.7008 11.7701 30.4942 11.7701C30.2874 11.7701 30.093 11.8085 29.911 11.8853C29.7287 11.9626 29.5689 12.0682 29.4311 12.2029C29.2931 12.3377 29.185 12.4938 29.1062 12.6715C29.0273 12.8498 28.9882 13.0395 28.9882 13.2416C28.9882 13.4432 29.0273 13.6334 29.1062 13.8111C29.185 13.9893 29.2931 14.1455 29.4311 14.2799C29.5689 14.4148 29.7287 14.5206 29.911 14.5974C30.093 14.6744 30.2874 14.7126 30.4942 14.7126C30.7008 14.7126 30.895 14.6744 31.0773 14.5974C31.2591 14.5206 31.4191 14.4148 31.5569 14.2799C31.6947 14.1455 31.8028 13.9893 31.8819 13.8111C31.9605 13.6334 32 13.4432 32 13.2416C32 13.0395 31.9605 12.8498 31.8819 12.6715C31.8028 12.4938 31.6947 12.3377 31.5569 12.2029Z" fill="#FF661F"/>
<path d="M57.6494 3.33083V6.69521C57.6494 7.05363 57.6231 7.34384 57.5712 7.56565C57.5695 7.57336 57.5671 7.58065 57.5648 7.58783L57.5634 7.59224C57.5627 7.59428 57.562 7.59633 57.5613 7.5984C57.5607 7.6005 57.5601 7.60261 57.5595 7.60476C57.4903 7.76574 57.3996 7.90624 57.2871 8.02585C57.1744 8.14566 57.0401 8.23926 56.8839 8.30644C56.7371 8.36993 56.5821 8.40229 56.4191 8.40597H48.6584C48.4313 8.38385 48.3046 8.32221 48.3046 8.32221C48.1628 8.2751 48.0351 8.19482 47.9216 8.08176C47.7894 7.94946 47.697 7.7725 47.645 7.5509C47.611 7.40528 47.589 7.22669 47.5771 7.02168L47.5769 3.31137L44.9914 3.31219V6.91251C44.9914 7.27072 44.9655 7.56094 44.9134 7.78295C44.9124 7.78686 44.9113 7.79072 44.9102 7.79452C44.9092 7.79788 44.9081 7.80119 44.907 7.80445C44.906 7.80792 44.9026 7.81731 44.8995 7.82571C44.8973 7.83171 44.8951 7.83721 44.8939 7.83968C44.8257 7.99328 44.7377 8.12784 44.6291 8.24315C44.5164 8.36296 44.3819 8.45636 44.2259 8.52374C44.0789 8.58723 43.9241 8.61959 43.7613 8.62348H43.6603C43.4973 8.61959 43.3427 8.58723 43.1957 8.52374C43.0395 8.45636 42.9052 8.36296 42.7927 8.24315C42.6798 8.12334 42.5891 7.98325 42.5199 7.82227C42.5187 7.81786 42.5174 7.81361 42.516 7.8094L42.5147 7.80531C42.5124 7.79806 42.51 7.79069 42.5082 7.78295C42.4562 7.56094 42.4302 7.27072 42.4302 6.91251V3.31116L39.8447 3.31034L39.8443 7.45239C39.8422 7.46298 39.8403 7.47389 39.8384 7.48476C39.8349 7.50437 39.8315 7.52398 39.8272 7.54189C39.7753 7.76329 39.6829 7.94004 39.5507 8.07234C39.437 8.1854 39.3095 8.26568 39.1676 8.31279C39.1676 8.31279 39.041 8.37443 38.8139 8.39655H29.6299C29.4718 8.40782 29.3339 8.4369 29.2107 8.47622C28.4055 8.70827 28.2665 9.43493 28.2665 9.43493L27.8588 11.0242H38.2395L38.2385 11.024C38.7495 11.024 39.1867 10.913 39.5507 10.7482C39.9147 10.5831 40.2245 10.3494 40.4799 10.0475C40.5142 10.0071 40.5445 9.96499 40.5747 9.92289L40.5829 9.91152C41.1627 10.5827 42.0325 11.0103 43.0058 11.0103L43.6428 11.0163H43.7787L44.4156 11.0103C45.3956 11.0103 46.2698 10.5767 46.8497 9.8978C46.893 9.96211 46.9405 10.025 46.9922 10.0856C47.2476 10.3875 47.5578 10.6214 47.9216 10.7865C48.2856 10.9515 48.723 11.0341 49.2338 11.0341L49.2328 11.0345L57.0736 11.0287C58.6133 11.0287 59.8953 9.96108 60.1772 8.5477L60.1827 8.5434C60.2072 8.40905 60.223 8.27162 60.2304 8.12989C60.2306 8.12784 60.2307 8.12579 60.2309 8.1237L60.2314 8.11801C60.2339 8.06927 60.2347 8.02011 60.2351 7.97014L60.2352 7.96724C60.2352 7.96564 60.2353 7.964 60.2353 7.96236L60.2347 3.33165L57.6494 3.33083Z" fill="#FF661F"/>
<path d="M61.3647 25.3793H64V14.3448H61.3647V25.3793Z" fill="#FF661F"/>
<path d="M30.8594 29.804C30.7387 29.6863 30.5988 29.5938 30.4396 29.5262C30.2801 29.459 30.1101 29.4253 29.9293 29.4253C29.7485 29.4253 29.5783 29.459 29.4191 29.5262C29.2596 29.5938 29.1199 29.6863 28.9992 29.804C28.8784 29.9219 28.7837 30.0587 28.7149 30.2142C28.6459 30.37 28.6118 30.5361 28.6118 30.7127C28.6118 30.8894 28.6459 31.0557 28.7149 31.2113C28.7837 31.367 28.8784 31.5036 28.9992 31.6214C29.1199 31.7393 29.2596 31.832 29.4191 31.8991C29.5783 31.9665 29.7485 32 29.9293 32C30.1101 32 30.2801 31.9665 30.4396 31.8991C30.5988 31.832 30.7387 31.7393 30.8594 31.6214C30.9799 31.5036 31.0747 31.367 31.1435 31.2113C31.2124 31.0557 31.2471 30.8894 31.2471 30.7127C31.2471 30.5361 31.2124 30.37 31.1435 30.2142C31.0747 30.0587 30.9799 29.9219 30.8594 29.804Z" fill="#FF661F"/>
<path d="M32.3651 26.8615C32.2445 26.7438 32.1045 26.6513 31.9455 26.5837C31.7859 26.5167 31.6159 26.4828 31.4351 26.4828C31.2543 26.4828 31.0841 26.5167 30.9251 26.5837C30.7655 26.6513 30.6257 26.7438 30.5051 26.8615C30.3844 26.9795 30.2896 27.1163 30.221 27.2716C30.1518 27.4276 30.1176 27.5937 30.1176 27.7701C30.1176 27.9469 30.1518 28.113 30.221 28.2688C30.2896 28.4245 30.3844 28.5611 30.5051 28.6788C30.6257 28.7966 30.7655 28.8893 30.9251 28.9565C31.0841 29.024 31.2543 29.0575 31.4351 29.0575C31.6159 29.0575 31.7859 29.024 31.9455 28.9565C32.1045 28.8893 32.2445 28.7966 32.3651 28.6788C32.4856 28.5611 32.5804 28.4245 32.6494 28.2688C32.7182 28.113 32.7529 27.9469 32.7529 27.7701C32.7529 27.5937 32.7182 27.4276 32.6494 27.2716C32.5804 27.1163 32.4856 26.9795 32.3651 26.8615Z" fill="#FF661F"/>
<path d="M28.9771 28.6788C29.0976 28.5611 29.1924 28.4243 29.2612 28.2686C29.33 28.113 29.3647 27.9468 29.3647 27.7701C29.3647 27.5935 29.33 27.4274 29.2612 27.2714C29.1924 27.1161 29.0976 26.9795 28.9771 26.8615C28.8562 26.7438 28.7165 26.6511 28.5573 26.5837C28.3979 26.5167 28.2279 26.4828 28.0471 26.4828C27.8663 26.4828 27.6961 26.5167 27.5368 26.5837C27.3774 26.6511 27.2377 26.7438 27.117 26.8615C26.9962 26.9795 26.9015 27.1161 26.8327 27.2714C26.7637 27.4274 26.7294 27.5935 26.7294 27.7701C26.7294 27.9468 26.7637 28.113 26.8327 28.2686C26.9015 28.4243 26.9962 28.5611 27.117 28.6788C27.2377 28.7966 27.3774 28.8891 27.5368 28.9565C27.6961 29.024 27.8663 29.0575 28.0471 29.0575C28.2279 29.0575 28.3979 29.024 28.5573 28.9565C28.7165 28.8891 28.8562 28.7966 28.9771 28.6788Z" fill="#FF661F"/>
<path d="M20.7059 21.9249L20.7057 21.8973L20.7059 18.7586H18.2256V21.444C18.2256 21.7862 18.2005 22.063 18.1508 22.2745C18.1007 22.4859 18.0121 22.6546 17.8851 22.781C17.7762 22.8888 17.6535 22.9654 17.5172 23.0102C17.3809 23.0554 17.2359 23.0777 17.0814 23.0777H17.0138C16.8595 23.0777 16.7143 23.0554 16.578 23.0102C16.4417 22.9654 16.3192 22.8888 16.2101 22.781C16.0831 22.6546 15.9945 22.4859 15.9444 22.2745C15.8947 22.063 15.8697 21.7864 15.8695 21.4446V18.7586H13.38V21.444C13.38 21.7862 13.3548 22.063 13.3051 22.2745C13.2552 22.4859 13.1664 22.6546 13.0394 22.781C12.9305 22.8888 12.8078 22.9654 12.6715 23.0102C12.5354 23.0554 12.3902 23.0777 12.2359 23.0777H12.1681C12.014 23.0777 11.8686 23.0554 11.7325 23.0102C11.596 22.9654 11.4735 22.8888 11.3644 22.781C11.2374 22.6546 11.1488 22.4859 11.0989 22.2745C11.0677 22.1418 11.0403 21.9382 11.0241 21.7202L11.0239 18.7586H8.55295V23.7634C8.54301 24.1377 8.46391 24.4849 8.31363 24.8041C8.153 25.1462 7.93315 25.4433 7.65468 25.6954C7.37581 25.9475 7.05414 26.1433 6.6907 26.2828C6.32664 26.4223 5.94149 26.4921 5.53505 26.4921C5.12881 26.4921 4.74326 26.4223 4.37961 26.2828C4.01576 26.1433 3.69673 25.9475 3.42272 25.6954C3.25966 25.5455 3.11586 25.3802 2.99377 25.1979C2.74633 24.8284 2.7658 24.1061 2.7658 24.1061C2.7658 24.1061 2.76398 23.9471 2.76418 23.9389L2.75992 19.9276H1.34413e-06V24.6111C-0.000201472 24.6232 0.0223111 25.3637 0.228778 25.7967C0.534421 26.4382 0.898881 27.0187 1.39679 27.5048C1.89491 27.9909 2.49058 28.3712 3.1836 28.6458C3.87622 28.9202 4.63921 29.0575 5.47238 29.0575C6.29642 29.0575 7.05718 28.9202 7.75467 28.6458C8.45215 28.3712 9.05188 27.9909 9.55466 27.5048C10.0574 27.0187 10.4489 26.4494 10.7298 25.7967C10.8267 25.5716 10.9064 25.3398 10.9697 25.1024C10.9855 25.1092 11.0013 25.1159 11.0172 25.1223C11.3624 25.2616 11.7664 25.3314 12.2296 25.3314C12.72 25.3314 13.14 25.2526 13.4897 25.0952C13.8393 24.9376 14.1371 24.7146 14.3821 24.4266C14.4663 24.3279 14.5364 24.2235 14.5981 24.1152C14.6005 24.1119 14.6029 24.1086 14.6054 24.1053L14.6143 24.0936C14.6181 24.0886 14.6219 24.0837 14.6257 24.0787C14.6281 24.0755 14.6304 24.0722 14.6328 24.069C14.7323 24.2044 14.8319 24.3253 14.8319 24.3253C15.1678 24.7305 15.5116 24.9949 15.8537 25.1424C16.2634 25.3191 16.97 25.3464 17.4543 25.3507H17.4566C19.3107 25.2922 20.7059 23.7807 20.7059 21.9249Z" fill="#FF661F"/>
<path d="M57.7537 17.8219C57.7537 17.8219 57.4783 17.7762 57.3369 17.7689H55.5943L60.2208 14.3448H55.6558L51.0366 17.7744L51.0443 20.3266H56.1409C56.4984 20.3266 56.7878 20.3526 57.0093 20.404C57.0165 20.4057 57.0233 20.4078 57.0299 20.41C57.0343 20.4114 57.0386 20.4127 57.043 20.414L57.0483 20.4154V20.4158C57.2091 20.4842 57.3491 20.5742 57.4686 20.6859C57.5881 20.7976 57.6814 20.9306 57.7485 21.0851C57.8111 21.2287 57.8431 21.3802 57.8476 21.5394C57.8431 21.6982 57.8111 21.8497 57.7485 21.9933C57.6814 22.148 57.5881 22.2812 57.4686 22.3929C57.3476 22.5056 57.2058 22.5984 57.0427 22.6669L57.0299 22.6712C57.0266 22.6723 57.0233 22.6734 57.02 22.6744C57.0167 22.6755 57.0133 22.6766 57.0099 22.6776C56.7886 22.7292 56.499 22.7552 56.1409 22.7552H53.779L53.7784 22.7548L47.0638 22.7534C46.7521 22.7534 46.466 22.5527 46.3935 22.2544L46.3919 22.2483C46.3413 22.0347 46.3159 21.7551 46.3157 21.41V18.6965H43.7819V21.4094C43.7819 21.7549 43.7563 22.0345 43.7057 22.2483C43.6547 22.462 43.5645 22.6322 43.4353 22.7599C43.3244 22.8689 43.1995 22.9461 43.0606 22.9916C43.0074 23.0091 42.9518 23.0202 42.8957 23.0308C42.8513 23.0385 42.8063 23.045 42.7603 23.0491L42.7341 23.0518C42.6957 23.0558 42.6572 23.0598 42.6172 23.0598H42.5487C42.3914 23.0598 42.2436 23.0373 42.1047 22.9916C41.9662 22.9461 41.8415 22.8689 41.7304 22.7599C41.6012 22.6322 41.5108 22.462 41.46 22.2483C41.4092 22.0347 41.3838 21.7551 41.3836 21.41V18.6965H38.8502V21.4094C38.8502 21.7549 38.8244 22.0345 38.7738 22.2483C38.723 22.462 38.6326 22.6322 38.5034 22.7599C38.3925 22.8689 38.2679 22.9461 38.1291 22.9916C38.0338 23.0229 37.9324 23.0393 37.8284 23.0491V23.0499C37.8165 23.0509 37.8046 23.0521 37.7928 23.0533C37.7605 23.0566 37.7283 23.0598 37.6946 23.0598H37.6257C37.5472 23.0598 37.4711 23.0541 37.3972 23.0428C37.3654 23.0379 37.335 23.0298 37.3046 23.0216L37.3041 23.0215L37.2912 23.0181C37.2843 23.0163 37.2774 23.0145 37.2704 23.0127C37.2591 23.0098 37.2476 23.0074 37.2361 23.005C37.2179 23.0012 37.1997 22.9974 37.1823 22.9916C37.1747 22.9892 37.1675 22.9861 37.1605 22.9828C37.1581 22.9816 37.1558 22.9805 37.1534 22.9793C37.1501 22.9776 37.1467 22.9759 37.1434 22.9742C37.1345 22.9696 37.1255 22.965 37.1162 22.9611C37.0045 22.9142 36.9005 22.8509 36.8078 22.7599C36.6784 22.6322 36.5884 22.462 36.5374 22.2483C36.4881 22.0404 36.4631 21.7693 36.4617 21.4373C36.4617 21.4277 36.4612 21.4192 36.4612 21.4094V18.6965H33.9274V21.4094C33.9274 21.429 33.9269 21.4475 33.9264 21.4658C33.926 21.4788 33.9257 21.4918 33.9255 21.5051C33.921 21.8054 33.897 22.0552 33.8512 22.2483C33.8002 22.4618 33.71 22.6322 33.5808 22.7599C33.4697 22.8689 33.3451 22.9461 33.2063 22.9916C33.0676 23.0373 32.9198 23.0598 32.7627 23.0598H32.6942C32.5369 23.0598 32.3891 23.0373 32.2504 22.9916C32.1117 22.9461 31.9868 22.8689 31.8759 22.7599C31.7467 22.6322 31.6565 22.4618 31.6055 22.2483C31.555 22.0345 31.5292 21.7549 31.5292 21.4094V18.6965H29.005L29.0033 21.6064C29.0033 22.3062 28.4266 22.8736 27.7151 22.8736H27.0151C26.3037 22.8736 25.727 22.3062 25.727 21.6064V19.8791H23.2012V21.6064C23.2012 21.6361 23.2032 21.6654 23.2053 21.6947C23.2067 21.7147 23.2081 21.7347 23.2088 21.7549V25.3251C23.2088 26.0213 22.6352 26.5856 21.9273 26.5856H20.3294V29.0575H21.9273C24.0228 29.0575 25.7214 27.3866 25.7214 25.3251V25.1322C26.126 25.276 26.5603 25.3582 27.0151 25.3582H27.7151C28.64 25.3582 29.4878 25.0341 30.148 24.4954C30.7198 25.0083 31.4687 25.3296 32.3123 25.356H32.3144C32.8073 25.3515 33.5265 25.3239 33.9435 25.1454C34.0182 25.1135 34.0929 25.0752 34.1675 25.0321C34.4672 24.8782 34.7289 24.6771 34.9473 24.4225C35.033 24.3228 35.1044 24.2172 35.1672 24.1077L35.1752 24.097L35.1813 24.089C35.1856 24.0834 35.1901 24.0775 35.1944 24.0718C35.1993 24.0785 35.2044 24.0851 35.2094 24.0918C35.2134 24.097 35.2175 24.1024 35.2215 24.1077C35.284 24.2172 35.3556 24.3228 35.4413 24.4225C35.6595 24.6769 35.921 24.878 36.2208 25.0319C36.2955 25.075 36.3702 25.1135 36.4449 25.1454C36.5789 25.2029 36.7457 25.2433 36.9245 25.2738L36.9378 25.2762C36.9445 25.2773 36.9513 25.2785 36.9581 25.2799C37.0411 25.2931 37.1256 25.3048 37.2123 25.3138C37.2492 25.3174 37.2862 25.3211 37.3239 25.3237C37.5879 25.3465 37.8538 25.354 38.0742 25.356L38.0763 25.3558C38.9862 25.3272 39.7855 24.9553 40.3713 24.3699C40.6993 24.7504 41.0344 25.0027 41.3675 25.1454C41.7847 25.3239 42.5039 25.3515 42.9968 25.356L42.9989 25.3558C43.9115 25.3272 44.7126 24.9533 45.2989 24.3652C45.6285 24.7482 45.9648 25.002 46.2996 25.1454C46.5661 25.2595 46.9556 25.3117 47.3313 25.3359L49.6394 25.336C52.6586 25.3361 57.2775 25.3362 57.2799 25.3359C57.541 25.304 57.7537 25.2602 57.7537 25.2602C59.1642 24.9809 60.2295 23.7105 60.2295 22.1846L60.2353 21.5534V21.5286L60.2295 20.8973C60.2295 19.3714 59.1642 18.1011 57.7537 17.8219Z" fill="#FF661F"/>
</svg>
