<svg width="24" height="24" viewBox="0 0 24 24" fill="none" xmlns="http://www.w3.org/2000/svg">
<path d="M13.275 19.3L19.775 12.8C19.8917 12.6833 19.975 12.5583 20.025 12.425C20.075 12.2917 20.1 12.15 20.1 12C20.1 11.85 20.075 11.7083 20.025 11.575C19.975 11.4417 19.8917 11.3167 19.775 11.2L13.275 4.69999C13.0583 4.49999 12.7957 4.39566 12.487 4.38699C12.179 4.37899 11.9083 4.48333 11.675 4.69999C11.4417 4.91666 11.3207 5.18333 11.312 5.49999C11.304 5.81666 11.4167 6.08333 11.65 6.29999L16.2 10.85H5.52501C5.20834 10.85 4.93734 10.9627 4.71201 11.188C4.48734 11.4127 4.37501 11.6833 4.37501 12C4.37501 12.3167 4.48734 12.5873 4.71201 12.812C4.93734 13.0373 5.20834 13.15 5.52501 13.15H16.2L11.65 17.7C11.4333 17.9 11.3207 18.1627 11.312 18.488C11.304 18.8127 11.4167 19.0833 11.65 19.3C11.8667 19.5167 12.1333 19.625 12.45 19.625C12.7667 19.625 13.0417 19.5167 13.275 19.3V19.3Z" fill="#757575"/>
</svg>
